<?xml version="1.0" ?><svg height="22px" version="1.1" viewBox="0 0 28 22" width="28px" xmlns="http://www.w3.org/2000/svg" xmlns:sketch="http://www.bohemiancoding.com/sketch/ns" xmlns:xlink="http://www.w3.org/1999/xlink"><title/><defs><path d="M22.0022113,18 L15.9955775,18 C15.444837,18 15,17.5518945 15,16.9991283 L15,6.00087166 C15,5.44463086 15.4457352,5 15.9955775,5 L23.0044225,5 C23.555163,5 24,5.4481055 24,6.00087166 L24,7 L23.0032055,7 C23.0035748,6.68419415 23.0039798,6.50080887 23.0044225,6.50080887 C23.0044225,6.50080887 16,6.49854747 16,6.50158703 C16,6.50158703 15.9987631,15.9991911 15.9955775,15.9991911 C15.9955775,15.9991911 18.9298035,16.0001385 21,15.9999827 L21,18 L22.0022113,18 L22.0022113,18 Z M20.7797631,4 C20.259921,3 19,3 19,3 L3.00000001,3 C3.00000001,3 1,3 1,5 L1,16 L2,16 L2.09086182,16 L2,4.99687737 C2,4.09090909 3.07958466,4 3.07958466,4 L16.449575,4 L20.7797631,4 L20.7797631,4 Z M17.8432636,18 L0.294103592,18 C0.140363983,18 0,17.8678761 0,17.7048931 L0,16.2951069 C0,16.1312256 0.131674663,16 0.294103592,16 L14,16 L14,18 L17.8432636,18 L17.8432636,18 Z M9.49047852,16.5 C9.21959471,16.5 9,16.7319336 9,17 C9,17.2761424 9.21505737,17.5 9.49047852,17.5 L12.5095215,17.5 C12.7804053,17.5 13,17.2680664 13,17 C13,16.7238576 12.7849426,16.5 12.5095215,16.5 L9.49047852,16.5 Z M19.5,17.5 C19.7761424,17.5 20,17.2761424 20,17 C20,16.7238576 19.7761424,16.5 19.5,16.5 C19.2238576,16.5 19,16.7238576 19,17 C19,17.2761424 19.2238576,17.5 19.5,17.5 Z M22,9.00087166 L22,16.9991283 C22,17.5518945 22.444837,18 22.9955775,18 L27.0044225,18 C27.5542648,18 28,17.5553691 28,16.9991283 L28,9.00087166 C28,8.4481055 27.555163,8 27.0044225,8 L22.9955775,8 C22.4457352,8 22,8.44463086 22,9.00087166 Z M27.0044225,8.91927949 C27.0012369,8.91927949 27,15.9170433 27,15.9170433 C27,15.9198802 22.9955775,15.9177696 22.9955775,15.9177696 C22.9987631,15.9177696 23,8.92000578 23,8.92000578 C23,8.91716885 27.0044225,8.91927949 27.0044225,8.91927949 Z M25,17.5 C25.2761424,17.5 25.5,17.2761424 25.5,17 C25.5,16.7238576 25.2761424,16.5 25,16.5 C24.7238576,16.5 24.5,16.7238576 24.5,17 C24.5,17.2761424 24.7238576,17.5 25,17.5 Z" id="path-1"/></defs><g fill="none" fill-rule="evenodd" id="miu" stroke="none" stroke-width="1"><g id="device_laptop_computer_ipad_tablet_devices_-3"><use fill="#000000" fill-rule="evenodd" xlink:href="#path-1"/><use fill="none" xlink:href="#path-1"/></g></g></svg>