<?xml version="1.0" encoding="UTF-8" standalone="no"?>
<svg width="33px" height="33px" viewBox="0 0 33 33" version="1.1" xmlns="http://www.w3.org/2000/svg" xmlns:xlink="http://www.w3.org/1999/xlink" xmlns:sketch="http://www.bohemiancoding.com/sketch/ns">
    <!-- Generator: Sketch 3.2.2 (9983) - http://www.bohemiancoding.com/sketch -->
    <title>Fill 3</title>
    <desc>Created with Sketch.</desc>
    <defs></defs>
    <g id="Page-1" stroke="none" stroke-width="1" fill="none" fill-rule="evenodd" sketch:type="MSPage">
        <g id="GitHub-Mark" sketch:type="MSLayerGroup" transform="translate(-210.000000, -55.000000)" fill="#161614">
            <path d="M226.608,55.455 C217.614,55.455 210.32,62.748 210.32,71.745 C210.32,78.942 214.987,85.047 221.46,87.201 C222.275,87.351 222.572,86.848 222.572,86.416 C222.572,86.03 222.558,85.005 222.55,83.646 C218.019,84.63 217.063,81.462 217.063,81.462 C216.322,79.58 215.254,79.079 215.254,79.079 C213.775,78.069 215.366,78.089 215.366,78.089 C217.001,78.204 217.861,79.768 217.861,79.768 C219.314,82.257 221.674,81.538 222.602,81.121 C222.75,80.069 223.171,79.351 223.636,78.944 C220.019,78.533 216.216,77.135 216.216,70.893 C216.216,69.115 216.851,67.66 217.893,66.522 C217.725,66.11 217.166,64.453 218.053,62.211 C218.053,62.211 219.42,61.773 222.532,63.881 C223.831,63.519 225.225,63.339 226.61,63.332 C227.994,63.339 229.387,63.519 230.688,63.881 C233.798,61.773 235.163,62.211 235.163,62.211 C236.052,64.453 235.493,66.11 235.326,66.522 C236.37,67.66 237,69.115 237,70.893 C237,77.151 233.191,78.528 229.563,78.931 C230.147,79.434 230.668,80.428 230.668,81.948 C230.668,84.125 230.648,85.882 230.648,86.416 C230.648,86.852 230.942,87.359 231.768,87.2 C238.236,85.041 242.899,78.94 242.899,71.745 C242.899,62.748 235.605,55.455 226.608,55.455" id="Fill-3" sketch:type="MSShapeGroup"></path>
        </g>
    </g>
</svg>