<!-- Generator: Adobe Illustrator 17.1.0, SVG Export Plug-In  -->
<svg version="1.1"
	 xmlns="http://www.w3.org/2000/svg" xmlns:xlink="http://www.w3.org/1999/xlink" xmlns:a="http://ns.adobe.com/AdobeSVGViewerExtensions/3.0/"
	 x="0px" y="0px" width="46px" height="38px" viewBox="0 0 46 38" enable-background="new 0 0 46 38" xml:space="preserve">
<defs>
</defs>
<path d="M43,16H3c-1.7,0-3,1.3-3,3c0,1.7,1.3,3,3,3l0,0h40c1.7,0,3-1.3,3-3S44.7,16,43,16z M3,6h40c1.7,0,3-1.3,3-3s-1.3-3-3-3H3h0
	C1.3,0,0,1.3,0,3S1.3,6,3,6z M43,32H3c-1.7,0-3,1.3-3,3s1.3,3,3,3l0,0h40c1.7,0,3-1.3,3-3S44.7,32,43,32z"/>
</svg>