<?xml version="1.0" encoding="UTF-8" standalone="no"?>
<svg width="42px" height="58px" viewBox="0 0 42 58" version="1.1" xmlns="http://www.w3.org/2000/svg" xmlns:xlink="http://www.w3.org/1999/xlink" xmlns:sketch="http://www.bohemiancoding.com/sketch/ns">
    <!-- Generator: Sketch 3.2.2 (9983) - http://www.bohemiancoding.com/sketch -->
    <title>IPHONE</title>
    <desc>Created with Sketch.</desc>
    <defs></defs>
    <g id="Page-1" stroke="none" stroke-width="1" fill="none" fill-rule="evenodd" sketch:type="MSPage">
        <g id="iphone" sketch:type="MSLayerGroup" fill="#000000">
            <g id="IPHONE_1_" sketch:type="MSShapeGroup">
                <g id="IPHONE">
                    <path d="M39,0 L11,0 C9.343,0 8,1.343 8,3 L8,55 C8,56.657 9.343,58 11,58 L39,58 C40.657,58 42,56.657 42,55 L42,3 C42,1.343 40.657,0 39,0 L39,0 Z M11,35 L11,48 L39,48 L39,6 L11,6 L11,19 L8,19 L8,35 L11,35 Z M25,55 C23.895,55 23,54.105 23,53 C23,51.895 23.895,51 25,51 C26.105,51 27,51.895 27,53 C27,54.105 26.105,55 25,55 Z" id="Shape"></path>
                    <path d="M28,26.5 C28,25.725625 27.664875,25.029125 27.131125,24.54875 L27.131125,24.54875 L18.381125,16.67375 C17.915625,16.2555 17.299625,16 16.625,16 C15.175125,16 14,17.175125 14,18.625 C14,19.399375 14.336,20.095875 14.868875,20.57625 L14.868875,20.57625 L18.53425,23.875 L2.625,23.875 C1.175125,23.875 0,25.050125 0,26.5 C0,27.949875 1.175125,29.125 2.625,29.125 L2.625,29.125 L18.53425,29.125 L14.86975,32.42375 C14.336,32.905 14,33.600625 14,34.375 C14,35.824875 15.175125,37 16.625,37 C17.299625,37 17.915625,36.7445 18.381125,36.32625 L18.381125,36.32625 L27.131125,28.45125 C27.664875,27.97175 28,27.274375 28,26.5 L28,26.5 Z" id="Shape"></path>
                </g>
            </g>
        </g>
    </g>
</svg>