<svg xmlns="http://www.w3.org/2000/svg" xmlns:xlink="http://www.w3.org/1999/xlink" style="display: none">

<symbol id="svg-bin" viewBox="0 0 64 64">
    <path d="M53 9H38V6c0-1.657-1.343-3-3-3h-6c-1.657 0-3 1.343-3 3v3H11c-1.657 0-3 1.343-3 3v3h48v-3c0-1.657-1.343-3-3-3zM11 58c0 1.657 1.343 3 3 3h36c1.657 0 3-1.343 3-3V18H11v40zm30-31c0-1.657 1.343-3 3-3s3 1.343 3 3v25c0 1.657-1.343 3-3 3s-3-1.343-3-3V27zm-12 0c0-1.657 1.343-3 3-3s3 1.343 3 3v25c0 1.657-1.343 3-3 3s-3-1.343-3-3V27zm-12 0c0-1.657 1.343-3 3-3s3 1.343 3 3v25c0 1.657-1.343 3-3 3s-3-1.343-3-3V27z" enable-background="new"/>
</symbol>
<symbol id="svg-circle-delete" viewBox="0 0 64 64">
    <path d="M32 0C14.327 0 0 14.327 0 32s14.327 32 32 32 32-14.327 32-32S49.673 0 32 0zm0 58C17.64 58 6 46.36 6 32S17.64 6 32 6s26 11.64 26 26-11.64 26-26 26zm14-37c0-1.657-1.343-3-3-3-.828 0-1.578.336-2.12.88L32 27.757l-8.88-8.88C22.58 18.337 21.83 18 21 18c-1.657 0-3 1.343-3 3 0 .828.336 1.578.88 2.12L27.756 32l-8.88 8.88C18.338 41.42 18 42.17 18 43c0 1.657 1.343 3 3 3 .828 0 1.58-.336 2.12-.88L32 36.244l8.88 8.88c.542.54 1.292.877 2.12.877 1.657 0 3-1.343 3-3 0-.828-.336-1.578-.88-2.12L36.244 32l8.88-8.878c.54-.544.877-1.293.877-2.122z" enable-background="new"/>
</symbol>
<symbol id="svg-circle-minus" viewBox="0 0 64 64">
    <path d="M45 29H19c-1.657 0-3 1.343-3 3s1.343 3 3 3h26c1.657 0 3-1.343 3-3s-1.343-3-3-3zM32 0C14.327 0 0 14.327 0 32s14.327 32 32 32 32-14.327 32-32S49.673 0 32 0zm0 58C17.64 58 6 46.36 6 32S17.64 6 32 6s26 11.64 26 26-11.64 26-26 26z" enable-background="new"/>
</symbol>
<symbol id="svg-circle-ok" viewBox="0 0 64 64">
    <title>circle_right</title><desc>Created with Sketch.</desc><g><path d="M32 0C14.327 0 0 14.327 0 32c0 17.673 14.327 32 32 32 17.673 0 32-14.327 32-32C64 14.327 49.673 0 32 0zM6 32C6 17.64 17.64 6 32 6s26 11.64 26 26-11.64 26-26 26S6 46.36 6 32zM42 21c-1.04 0-1.954.527-2.493 1.33L30.57 35.328l-5.45-5.45C24.58 29.336 23.83 29 23 29c-1.657 0-3 1.343-3 3 0 .83.336 1.58.88 2.12l8 8c.542.544 1.292.88 2.12.88 1.04 0 1.954-.527 2.493-1.33l10.97-15.954C44.8 25.23 45 24.64 45 24c0-1.657-1.343-3-3-3z"/></g>
</symbol>
<symbol id="svg-circle-plus" viewBox="0 0 64 64">
    <path d="M45 29H35V19c0-1.657-1.343-3-3-3s-3 1.343-3 3v10H19c-1.657 0-3 1.343-3 3s1.343 3 3 3h10v10c0 1.657 1.343 3 3 3s3-1.343 3-3V35h10c1.657 0 3-1.343 3-3s-1.343-3-3-3zM32 0C14.327 0 0 14.327 0 32s14.327 32 32 32 32-14.327 32-32S49.673 0 32 0zm0 58C17.64 58 6 46.36 6 32S17.64 6 32 6s26 11.64 26 26-11.64 26-26 26z" enable-background="new"/>
</symbol>
<symbol id="svg-github" viewBox="0 0 33 33">
    <title>Fill 3</title><desc>Created with Sketch.</desc><path d="M16.608.455C7.614.455.32 7.748.32 16.745c0 7.197 4.667 13.302 11.14 15.456.815.15 1.112-.352 1.112-.784 0-.386-.014-1.41-.022-2.77-4.53.984-5.487-2.184-5.487-2.184-.74-1.882-1.81-2.383-1.81-2.383-1.478-1.01.113-.99.113-.99C7 23.203 7.86 24.767 7.86 24.767c1.454 2.49 3.814 1.77 4.742 1.353.148-1.05.57-1.77 1.034-2.176-3.617-.41-7.42-1.81-7.42-8.05 0-1.78.635-3.234 1.677-4.372-.168-.412-.727-2.07.16-4.31 0 0 1.367-.44 4.48 1.67 1.298-.363 2.692-.543 4.077-.55 1.384.007 2.777.187 4.078.55 3.11-2.11 4.475-1.67 4.475-1.67.89 2.24.33 3.898.163 4.31C26.37 12.66 27 14.115 27 15.892c0 6.26-3.81 7.636-7.437 8.04.584.502 1.105 1.496 1.105 3.016 0 2.177-.02 3.934-.02 4.468 0 .436.294.943 1.12.784 6.468-2.16 11.13-8.26 11.13-15.455 0-8.997-7.293-16.29-16.29-16.29"/>
</symbol>
<symbol id="svg-home" viewBox="0 0 64 64">
    <path d="M6 39v21c0 1.657 1.343 3 3 3h28V39h12v24h6c1.657 0 3-1.343 3-3V39L32 13 6 39zm21 12H15V39h12v12zm36.19-19.04l.005-.007L52 20.757V12c0-1.657-1.343-3-3-3s-3 1.343-3 3v2.757L34.195 2.953l-.002.002c-.478-.512-1.13-.857-1.865-.937h-.01c-.044-.006-.09-.01-.134-.012-.008 0-.017 0-.025-.002C32.106 2.002 32.053 2 32 2c-.85 0-1.616.354-2.162.922L.922 31.838C.354 32.384 0 33.15 0 34c0 1.657 1.343 3 3 3 .82 0 1.565-.33 2.106-.864L32 9.247l.077.072v.002l26.877 26.877.007-.008c.536.498 1.25.81 2.04.81 1.657 0 3-1.343 3-3 0-.79-.312-1.504-.81-2.04z" enable-background="new"/>
</symbol>
<symbol id="svg-logo" viewBox="0 0 38 38">
    <path d="M18.9 35.2h-.2L6.9 30.3c-.1 0-.2-.1-.3-.3l-5-11.8c-.1-.1-.1-.3 0-.4l5-11.7c0-.1.1-.2.3-.3L18.7 1h.4l11.8 4.9c.1 0 .2.1.3.3l5 11.8c.1.1.1.3 0 .4l-4.9 11.8c0 .1-.1.2-.3.3l-11.9 4.8c-.1-.1-.1-.1-.2-.1zM7.5 29.5l11.4 4.7 11.5-4.6 4.7-11.4-4.8-11.5L18.9 2 7.4 6.7 2.7 18.1l4.8 11.4zM18.5 35.3c-.3 0-.5-.2-.5-.5V2.4c0-.3.2-.5.5-.5s.5.3.5.5v32.4c0 .3-.2.5-.5.5zM35.7 18.9c-.1 0-.2 0-.3-.1L6.7 7c-.3-.2-.5-.6-.4-1 .2-.4.6-.6 1-.4L36 17.5c.4.2.6.6.4 1-.1.3-.4.4-.7.4zM18.9 35.3c-.2 0-.3-.1-.4-.2-.2-.2-.2-.6 0-.8l16.8-16.6c.2-.2.6-.2.8 0 .2.2.2.6 0 .8L19.3 35.1c-.1.2-.2.2-.4.2zM30.8 30.5h-.2l-11.9-4.9c-.2-.1-.4-.4-.3-.6.1-.2.4-.4.6-.3l12 4.8c.2.1.4.4.3.6-.1.2-.3.4-.5.4zM18.9 35c-.1 0-.1 0-.2-.1L2 18.3c-.1-.1-.1-.3 0-.4.1-.1.3-.1.4 0l16.7 16.6c.1.1.1.3 0 .4 0 .1-.1.1-.2.1zM2.2 18.1M1.7 18.3"/><circle cx="18.3" cy="24.7" r="1.2"/><circle cx="7.1" cy="6.2" r="1.2"/><circle cx="35.8" cy="18" r="1.2"/><circle cx="18.3" cy="34.6" r="1.2"/><circle cx="2.2" cy="18" r="1.2"/>
</symbol>
<symbol id="svg-logo-word" viewBox="0 0 194 40">
    <g><path d="M15 6.6c4.3 0 6.6 1.7 6.6 5.7 0 2.9-1.1 4.3-2.9 5.1 2 .7 3.5 2 3.5 5.2 0 4.7-2.7 6.2-6.9 6.2H6.9V6.6H15zM9.4 8.8v7.7h5.7c2.8 0 4-1.3 4-4 0-2.6-1.4-3.7-4.2-3.7H9.4zm0 9.8v8h5.9c2.7 0 4.5-.9 4.5-4.2 0-3.4-2.9-3.9-4.6-3.9H9.4zM26.9 12.8h2.4V15s2.8-1.9 5.9-2.5v2.4c-3 .6-5.9 2.2-5.9 2.2v11.8h-2.4V12.8zM51.5 20.6c0 5.9-1.4 8.6-6.9 8.6-5.4 0-6.9-2.7-6.9-8.6 0-5.5 1.8-8.2 6.9-8.2 5.1 0 6.9 2.7 6.9 8.2zm-2.5 0c0-4.5-1-6.1-4.4-6.1-3.4 0-4.4 1.6-4.4 6.1 0 4.6.6 6.5 4.4 6.5 3.8 0 4.4-1.9 4.4-6.5zM57 12.8l3.3 14h.5l3.8-13.7h2.5l3.8 13.7h.5l3.2-14H77l-3.8 16.1h-4l-3.4-12.6-3.4 12.6h-4l-3.8-16.1H57zM91.6 15.1s-3.6-.5-5.6-.5c-2 0-3.5.5-3.5 2.4 0 1.5.8 1.9 4.2 2.5 4 .7 5.5 1.5 5.5 4.6 0 3.8-2.4 5-6.2 5-2.1 0-5.7-.6-5.7-.6l.1-2.1s3.7.5 5.3.5c2.6 0 4.1-.6 4.1-2.8 0-1.7-.8-2.1-4.3-2.6-3.6-.6-5.4-1.3-5.4-4.5 0-3.5 2.9-4.7 5.8-4.7 2.4 0 5.8.6 5.8.6l-.1 2.2zM108.4 26.8l.1 1.9s-3.7.5-6.3.5c-4.8 0-6.4-2.8-6.4-8.3 0-6.1 2.6-8.5 6.7-8.5 4.3 0 6.5 2.3 6.5 7.5l-.1 1.8H98.3c0 3.4 1.1 5.2 4.2 5.2 2.4.1 5.9-.1 5.9-.1zm-1.8-6.9c0-4-1.2-5.4-4.1-5.4-2.7 0-4.3 1.5-4.3 5.4h8.4zM113.5 12.8h2.4V15s2.8-1.9 5.9-2.5v2.4c-3 .6-5.9 2.2-5.9 2.2v11.8h-2.4V12.8zM138.2 9s-4.5-.5-6.3-.5c-3.2 0-4.8 1.1-4.8 3.6 0 2.9 1.5 3.4 5.4 4.2 4.4 1 6.4 2.1 6.4 6 0 4.9-2.7 6.9-7.1 6.9-2.6 0-7.1-.7-7.1-.7l.3-2.1s4.4.6 6.7.6c3.2 0 4.8-1.4 4.8-4.5 0-2.5-1.3-3.2-5-3.9-4.6-1-6.9-2.1-6.9-6.3 0-4.3 2.8-6 7.2-6 2.6 0 6.7.6 6.7.6l-.3 2.1zM143.9 12.8l4 14h1.1l4.1-14h2.4L148.8 36h-2.4l2.1-7.1h-2.4l-4.6-16.1h2.4zM159.2 28.9V12.8h2.4v1.1s2.6-1.4 5-1.4c4.4 0 5.4 2.2 5.4 7.9v8.5h-2.4v-8.4c0-4.2-.5-5.8-3.5-5.8-2.3 0-4.5 1.2-4.5 1.2V29h-2.4zM187.6 12.9l-.1 2s-2.6-.3-3.8-.3c-3.7 0-4.7 1.6-4.7 5.9 0 4.8.7 6.5 4.7 6.5 1.2 0 3.8-.3 3.8-.3l.1 2s-3 .5-4.5.5c-5.1 0-6.6-2.4-6.6-8.7 0-5.8 1.9-8.1 6.7-8.1 1.5 0 4.4.5 4.4.5z"/></g>
</symbol>
<symbol id="svg-repeat" viewBox="0 0 64 64">
    <path d="M61 29c-1.657 0-3 1.343-3 3 0 14.36-11.64 26-26 26-8.768 0-16.506-4.348-21.207-11H16c1.657 0 3-1.343 3-3s-1.343-3-3-3H3c-1.657 0-3 1.343-3 3v12c0 1.657 1.343 3 3 3s3-1.343 3-3v-5.454C11.79 58.68 21.254 64 32 64c17.673 0 32-14.327 32-32 0-1.657-1.343-3-3-3zm0-24c-1.657 0-3 1.343-3 3v5.412C52.204 5.3 42.732 0 32 0 14.327 0 0 14.327 0 32c0 1.657 1.343 3 3 3s3-1.343 3-3C6 17.64 17.64 6 32 6c8.76 0 16.47 4.355 21.167 11H48c-1.657 0-3 1.343-3 3s1.343 3 3 3h13c1.657 0 3-1.343 3-3V8c0-1.657-1.343-3-3-3z" enable-background="new"/>
</symbol>
<symbol id="svg-square-add" viewBox="0 0 64 64">
    <path d="M19 35h10v10c0 1.657 1.343 3 3 3s3-1.343 3-3V35h10c1.657 0 3-1.343 3-3s-1.343-3-3-3H35V19c0-1.657-1.343-3-3-3s-3 1.343-3 3v10H19c-1.657 0-3 1.343-3 3s1.343 3 3 3zM61 0H3C1.343 0 0 1.343 0 3v58c0 1.657 1.343 3 3 3h58c1.657 0 3-1.343 3-3V3c0-1.657-1.343-3-3-3zm-3 58H6V6h52v52z" enable-background="new"/>
</symbol>
<symbol id="svg-square-up" viewBox="0 0 64 64">
    <path fill-rule="evenodd" clip-rule="evenodd" d="M15 0H3C1.343 0 0 1.344 0 3v12c0 1.657 1.343 3 3 3s3-1.343 3-3V6h9c1.657 0 3-1.343 3-3 0-1.656-1.343-3-3-3zM3 40c1.657 0 3-1.343 3-3V27c0-1.657-1.343-3-3-3s-3 1.343-3 3v10c0 1.657 1.343 3 3 3zm12 18H6v-9c0-1.657-1.343-3-3-3s-3 1.343-3 3v12c0 1.657 1.343 3 3 3h12c1.657 0 3-1.343 3-3s-1.343-3-3-3zM27 6h10c1.657 0 3-1.343 3-3s-1.343-3-3-3H27c-1.657 0-3 1.343-3 3s1.343 3 3 3zm10 52H27c-1.657 0-3 1.343-3 3s1.343 3 3 3h10c1.657 0 3-1.343 3-3s-1.343-3-3-3zm24-34c-1.657 0-3 1.343-3 3v10c0 1.657 1.343 3 3 3s3-1.343 3-3V27c0-1.657-1.343-3-3-3zm0-24H49c-1.657 0-3 1.343-3 3s1.343 3 3 3h9v9c0 1.658 1.343 3 3 3s3-1.342 3-3V3c0-1.656-1.343-3-3-3zM43.23 26.994l-9-10-.008.007c-.55-.61-1.336-1-2.222-1-.885 0-1.672.392-2.222 1l-.008-.006-9 10 .008.007c-.478.532-.778 1.23-.778 2 0 1.657 1.343 3 3 3 .885 0 1.673-.39 2.222-1l.008.007 3.77-4.19V45c0 1.657 1.343 3 3 3s3-1.343 3-3V26.818l3.77 4.19.008-.008c.55.61 1.337 1 2.222 1 1.657 0 3-1.343 3-3 0-.772-.3-1.468-.778-2l.008-.006zM61 46c-1.657 0-3 1.343-3 3v9h-9c-1.657 0-3 1.343-3 3s1.343 3 3 3h12c1.657 0 3-1.343 3-3V49c0-1.657-1.343-3-3-3z"/>
</symbol>
<symbol id="svg-target" viewBox="0 0 64 64">
    <path d="M32 29c-1.657 0-3 1.343-3 3s1.343 3 3 3 3-1.343 3-3-1.343-3-3-3zm29 0h-3.186C56.438 17.042 46.956 7.57 35 6.19V3c0-1.657-1.343-3-3-3s-3 1.343-3 3v3.186C17.042 7.562 7.568 17.044 6.19 29H3c-1.657 0-3 1.343-3 3s1.343 3 3 3h3.186C7.562 46.958 17.044 56.432 29 57.81V61c0 1.657 1.343 3 3 3s3-1.343 3-3v-3.19C46.956 56.43 56.438 46.957 57.814 35H61c1.657 0 3-1.343 3-3s-1.343-3-3-3zm-15 6h5.75C50.45 43.64 43.635 50.453 35 51.757V46c0-1.657-1.343-3-3-3s-3 1.343-3 3v5.756C20.366 50.453 13.552 43.64 12.25 35H18c1.657 0 3-1.343 3-3s-1.343-3-3-3h-5.756C13.547 20.366 20.362 13.552 29 12.25V18c0 1.657 1.343 3 3 3s3-1.343 3-3v-5.756C43.634 13.547 50.448 20.362 51.75 29H46c-1.657 0-3 1.343-3 3s1.343 3 3 3z" enable-background="new"/>
</symbol>
<symbol id="svg-trash" viewBox="0 0 30 29">
    <title>Fill 213 + Fill 132</title><desc>Created with Sketch.</desc><g transform="translate(0 0)"><path d="M15.147 3.412c-6.507 0-11.78 5.092-11.78 11.375 0 6.282 5.273 11.375 11.78 11.375s11.78-5.093 11.78-11.375c0-6.283-5.273-11.375-11.78-11.375zm0 25.375c-8.006 0-14.5-6.268-14.5-14s6.494-14 14.5-14c8.007 0 14.5 6.268 14.5 14s-6.493 14-14.5 14z"/><path d="M19.36 12.578c0-.43-.365-.776-.813-.776-.45 0-.813.347-.813.776v6.466c0 .43.364.776.813.776.448 0 .812-.347.812-.776v-6.466zm-3.25 0c0-.43-.365-.776-.813-.776-.45 0-.813.347-.813.776v6.466c0 .43.364.776.813.776.448 0 .812-.347.812-.776v-6.466zm-3.25 0c0-.43-.365-.776-.813-.776-.45 0-.813.347-.813.776v6.466c0 .43.364.776.813.776.448 0 .812-.347.812-.776v-6.466zm8.124-1.552v9.57c0 .43-.364.775-.812.775h-9.75c-.45 0-.813-.345-.813-.775V10.25h11.374v.776zM8.797 8.7c0-.43.364-.777.812-.777h4.062v-.776c0-.43.364-.776.812-.776h1.625c.448 0 .812.348.812.777v.776h4.062c.45 0 .813.347.813.776v.775h-13V8.7z"/></g>
</symbol>
<symbol id="svg-twitter" viewBox="0 0 64 52">
    <title>Fill 18</title><desc>Created with Sketch.</desc><path d="M43.573-.01C48.66-.1 51.366 1.76 53.95 4.11 56.147 3.92 59 2.7 60.68 1.85l1.634-.9c-.96 2.59-2.26 4.62-4.26 6.16-.445.35-.885.81-1.442 1.03v.03c2.85-.03 5.2-1.32 7.432-2.01v.03c-1.173 1.86-2.76 3.75-4.453 5.11-.684.54-1.368 1.08-2.05 1.63.036 3.01-.045 5.89-.61 8.43C53.65 36.1 44.963 46.1 31.21 50.39c-4.94 1.54-12.92 2.17-18.58.76-2.806-.69-5.34-1.48-7.72-2.52-1.32-.58-2.545-1.2-3.715-1.91-.385-.24-.77-.47-1.153-.71 1.276.04 2.77.39 4.196.16 1.29-.21 2.557-.15 3.747-.41 2.97-.65 5.608-1.52 7.88-2.85 1.102-.64 2.773-1.4 3.556-2.33-1.474.03-2.81-.31-3.907-.7-4.248-1.5-6.72-4.26-8.328-8.4 1.287.14 4.994.48 5.86-.25-1.62-.09-3.177-1.03-4.29-1.73-3.417-2.14-6.204-5.72-6.183-11.24.448.21.897.43 1.345.64.858.36 1.73.55 2.755.77.433.08 1.297.34 1.794.15h-.064c-.66-.76-1.738-1.28-2.403-2.1C3.806 14.99 1.752 10.8 3.05 5.81c.33-1.27.853-2.39 1.41-3.42l.064.03c.255.53.824.93 1.185 1.37 1.12 1.39 2.502 2.64 3.91 3.74 4.794 3.75 9.112 6.05 16.047 7.76 1.76.43 3.793.76 5.894.77-.59-1.72-.4-4.5.065-6.17 1.17-4.18 3.707-7.2 7.432-8.81.89-.39 1.878-.67 2.914-.9.535-.06 1.07-.12 1.603-.19"/>
</symbol>
</svg>