<?xml version="1.0" encoding="UTF-8" standalone="no"?>
<svg width="64px" height="52px" viewBox="0 0 64 52" version="1.1" xmlns="http://www.w3.org/2000/svg" xmlns:xlink="http://www.w3.org/1999/xlink" xmlns:sketch="http://www.bohemiancoding.com/sketch/ns">
    <!-- Generator: Sketch 3.2.2 (9983) - http://www.bohemiancoding.com/sketch -->
    <title>Fill 18</title>
    <desc>Created with Sketch.</desc>
    <defs></defs>
    <g id="Welcome" stroke="none" stroke-width="1" fill="none" fill-rule="evenodd" sketch:type="MSPage">
        <g id="ikons" sketch:type="MSLayerGroup" transform="translate(0.000000, -2695.000000)" fill="#0A0B09">
            <path d="M43.573,2694.99 C48.659,2694.9 51.366,2696.76 53.951,2699.11 C56.146,2698.92 58.998,2697.7 60.678,2696.85 C61.223,2696.55 61.767,2696.25 62.312,2695.95 C61.352,2698.54 60.051,2700.57 58.051,2702.11 C57.607,2702.46 57.167,2702.92 56.61,2703.14 L56.61,2703.17 C59.459,2703.14 61.809,2701.85 64.042,2701.16 L64.042,2701.19 C62.869,2703.05 61.282,2704.94 59.589,2706.3 C58.906,2706.84 58.222,2707.38 57.539,2707.93 C57.576,2710.94 57.495,2713.82 56.93,2716.36 C53.651,2731.1 44.963,2741.1 31.209,2745.39 C26.27,2746.93 18.289,2747.56 12.63,2746.15 C9.824,2745.46 7.289,2744.67 4.91,2743.63 C3.589,2743.05 2.365,2742.43 1.195,2741.72 C0.81,2741.48 0.426,2741.25 0.042,2741.01 C1.318,2741.05 2.811,2741.4 4.238,2741.17 C5.529,2740.96 6.795,2741.02 7.985,2740.76 C10.956,2740.11 13.593,2739.24 15.865,2737.91 C16.967,2737.27 18.638,2736.51 19.421,2735.58 C17.946,2735.61 16.609,2735.27 15.513,2734.88 C11.265,2733.38 8.793,2730.62 7.185,2726.48 C8.472,2726.62 12.179,2726.96 13.046,2726.23 C11.426,2726.14 9.868,2725.2 8.754,2724.5 C5.338,2722.36 2.551,2718.78 2.572,2713.26 C3.02,2713.47 3.469,2713.69 3.917,2713.9 C4.775,2714.26 5.648,2714.45 6.672,2714.67 C7.105,2714.75 7.969,2715.01 8.466,2714.82 L8.402,2714.82 C7.741,2714.06 6.664,2713.54 5.999,2712.72 C3.807,2709.99 1.753,2705.8 3.052,2700.81 C3.382,2699.54 3.905,2698.42 4.462,2697.39 C4.483,2697.4 4.505,2697.41 4.526,2697.42 C4.781,2697.95 5.35,2698.35 5.711,2698.79 C6.831,2700.18 8.212,2701.43 9.619,2702.53 C14.414,2706.28 18.732,2708.58 25.667,2710.29 C27.426,2710.72 29.46,2711.05 31.561,2711.06 C30.971,2709.34 31.16,2706.56 31.625,2704.89 C32.794,2700.71 35.332,2697.69 39.057,2696.08 C39.947,2695.69 40.935,2695.41 41.971,2695.18 C42.505,2695.12 43.039,2695.06 43.573,2694.99" id="Fill-18" sketch:type="MSShapeGroup"></path>
        </g>
    </g>
</svg>